<svg id="visual" viewBox="0 0 960 300" width="960" height="300" xmlns="http://www.w3.org/2000/svg" xmlns:xlink="http://www.w3.org/1999/xlink" version="1.1"><rect x="0" y="0" width="960" height="300" fill="#010b13"></rect><path d="M0 85L20 91C40 97 80 109 120 112.8C160 116.7 200 112.3 240 111.7C280 111 320 114 360 111.3C400 108.7 440 100.3 480 101C520 101.7 560 111.3 600 117.2C640 123 680 125 720 121.7C760 118.3 800 109.7 840 102.3C880 95 920 89 940 86L960 83L960 0L940 0C920 0 880 0 840 0C800 0 760 0 720 0C680 0 640 0 600 0C560 0 520 0 480 0C440 0 400 0 360 0C320 0 280 0 240 0C200 0 160 0 120 0C80 0 40 0 20 0L0 0Z" fill="#fa7268"></path><path d="M0 69L20 69.8C40 70.7 80 72.3 120 76.3C160 80.3 200 86.7 240 89.8C280 93 320 93 360 94.3C400 95.7 440 98.3 480 99.2C520 100 560 99 600 95.2C640 91.3 680 84.7 720 84.8C760 85 800 92 840 96.2C880 100.3 920 101.7 940 102.3L960 103L960 0L940 0C920 0 880 0 840 0C800 0 760 0 720 0C680 0 640 0 600 0C560 0 520 0 480 0C440 0 400 0 360 0C320 0 280 0 240 0C200 0 160 0 120 0C80 0 40 0 20 0L0 0Z" fill="#f16367"></path><path d="M0 58L20 61.7C40 65.3 80 72.7 120 74.8C160 77 200 74 240 70.8C280 67.7 320 64.3 360 61.5C400 58.7 440 56.3 480 59.7C520 63 560 72 600 75.8C640 79.7 680 78.3 720 77.8C760 77.3 800 77.7 840 74.8C880 72 920 66 940 63L960 60L960 0L940 0C920 0 880 0 840 0C800 0 760 0 720 0C680 0 640 0 600 0C560 0 520 0 480 0C440 0 400 0 360 0C320 0 280 0 240 0C200 0 160 0 120 0C80 0 40 0 20 0L0 0Z" fill="#e85467"></path><path d="M0 70L20 66.3C40 62.7 80 55.3 120 52.8C160 50.3 200 52.7 240 54.5C280 56.3 320 57.7 360 58.7C400 59.7 440 60.3 480 61.3C520 62.3 560 63.7 600 62.7C640 61.7 680 58.3 720 56.2C760 54 800 53 840 52.7C880 52.3 920 52.7 940 52.8L960 53L960 0L940 0C920 0 880 0 840 0C800 0 760 0 720 0C680 0 640 0 600 0C560 0 520 0 480 0C440 0 400 0 360 0C320 0 280 0 240 0C200 0 160 0 120 0C80 0 40 0 20 0L0 0Z" fill="#de4467"></path><path d="M0 48L20 48.5C40 49 80 50 120 50.8C160 51.7 200 52.3 240 51.8C280 51.3 320 49.7 360 46C400 42.3 440 36.7 480 35C520 33.3 560 35.7 600 39.2C640 42.7 680 47.3 720 46.5C760 45.7 800 39.3 840 37.5C880 35.7 920 38.3 940 39.7L960 41L960 0L940 0C920 0 880 0 840 0C800 0 760 0 720 0C680 0 640 0 600 0C560 0 520 0 480 0C440 0 400 0 360 0C320 0 280 0 240 0C200 0 160 0 120 0C80 0 40 0 20 0L0 0Z" fill="#d23467"></path><path d="M0 16L20 17.3C40 18.7 80 21.3 120 22.3C160 23.3 200 22.7 240 21.7C280 20.7 320 19.3 360 18.8C400 18.3 440 18.7 480 18.5C520 18.3 560 17.7 600 16C640 14.3 680 11.7 720 14.2C760 16.7 800 24.3 840 26C880 27.7 920 23.3 940 21.2L960 19L960 0L940 0C920 0 880 0 840 0C800 0 760 0 720 0C680 0 640 0 600 0C560 0 520 0 480 0C440 0 400 0 360 0C320 0 280 0 240 0C200 0 160 0 120 0C80 0 40 0 20 0L0 0Z" fill="#c62368"></path></svg>